<svg width="216" height="107" viewBox="0 0 216 107" fill="none" xmlns="http://www.w3.org/2000/svg">
<path d="M1.72193 40.3232L1.5 40.6844V41.1084V63.7837V64.3694L1.89694 64.8002L14.2189 78.1714L26.5425 93.0861L26.8398 93.446L27.2889 93.5736L65.3853 104.396L65.7955 104.513L66.2057 104.396C69.0343 103.591 73.8188 101.617 77.8148 99.8848C79.8308 99.0111 81.6753 98.1863 83.0156 97.5801C83.6859 97.2769 84.2305 97.0282 84.6079 96.8551C84.7696 96.781 84.9006 96.7207 84.9977 96.6759L105.763 93.6529L106.184 93.739C106.626 93.8295 107.276 93.9622 108.103 94.1309C109.757 94.4683 112.124 94.9496 114.973 95.5255C120.671 96.6774 128.299 98.2081 136.022 99.7227C143.742 101.237 151.563 102.737 157.642 103.826C160.68 104.37 163.293 104.814 165.246 105.106C166.221 105.252 167.046 105.363 167.684 105.428C168.002 105.461 168.289 105.484 168.532 105.494C168.744 105.503 169.03 105.508 169.293 105.462C169.779 105.378 170.617 105.135 171.615 104.821C172.649 104.496 173.956 104.06 175.437 103.551C178.399 102.531 182.085 101.206 185.736 99.8502C189.387 98.4945 193.014 97.1039 195.857 95.953C197.277 95.3781 198.513 94.8585 199.463 94.4302C199.937 94.2164 200.352 94.0199 200.689 93.8467C200.997 93.688 201.33 93.504 201.575 93.312C202.108 92.8948 202.962 91.9607 203.895 90.8838C204.871 89.7564 206.053 88.3318 207.285 86.8149C209.753 83.7795 212.452 80.3424 214.186 78.103L214.5 77.6975V77.1848V49.3544V48.7686L214.103 48.3379L201.754 34.9381L201.374 34.5264L200.818 34.464L155.318 29.3583L137.383 14.6925L137.198 14.5411L136.975 14.4548L106.349 2.60112L105.893 2.42466L105.42 2.55074L84.3246 8.18146L34.0287 11.2645L33.7619 11.2809L33.5172 11.3884L14.7461 19.6341L14.3168 19.8227L14.0713 20.2222L1.72193 40.3232Z" fill="white" stroke="#FDA700" stroke-width="3"/>
</svg>
