<svg width="58" height="67" viewBox="0 0 58 67" fill="none" xmlns="http://www.w3.org/2000/svg">
<path d="M12.8117 40.9791C14.3009 39.86 15.7216 41.4653 17.04 44.3028C18.6174 47.6942 18.7607 54.9671 15.1737 57.6302C14.8449 57.8677 14.4885 58.0747 14.1024 58.2309C9.42718 60.1373 10.4592 44.6331 11.436 42.7732C11.9029 41.899 12.3559 41.3153 12.8117 40.9791Z" fill="#5FBBE8"/>
<path d="M12.8115 40.9785C14.3007 39.8594 15.7214 41.4646 17.0398 44.3021C18.6172 47.6936 18.7604 54.9664 15.1735 57.6296C16.4563 53.8078 17.6657 46.9405 12.8115 40.9785Z" fill="#5FAEDE"/>
<path d="M11.8086 53.9608C11.7662 52.771 11.8773 50.8027 12.2902 50.7556C12.7032 50.7084 13.4428 52.6711 13.4235 54.606C13.4128 55.9329 13.0476 57.4873 12.6803 57.493C12.2549 57.4959 11.8635 55.5005 11.8086 53.9608Z" fill="#B1ECED"/>
<path d="M40.0897 41.7168C40.2371 49.2876 35.0969 58.2865 26.6673 58.4506C21.4367 58.5524 17.0723 55.4348 14.4793 51.1969C12.8838 48.596 11.9514 45.5773 11.8939 42.6244C11.743 34.8695 20.2165 35.0728 25.5758 34.9685C31.459 34.854 38.4274 34.2674 39.8395 39.7247C39.989 40.32 40.0752 40.9717 40.0897 41.7168Z" fill="#5FBBE8"/>
<path d="M40.0896 41.7171C40.2369 49.2879 35.0967 58.2868 26.6672 58.4509C21.4366 58.5527 17.0722 55.4351 14.4792 51.1972C19.7669 53.5606 34.786 58.3849 39.8393 39.725C39.9889 40.3203 40.0751 40.972 40.0896 41.7171Z" fill="#5FAEDE"/>
<path d="M14.7497 39.569C13.6905 41.3749 14.5123 43.908 16.4163 44.8741C18.4224 45.8933 21.1158 44.893 21.8104 42.7813C22.4702 40.7715 21.0754 38.5625 19.1236 37.9747C17.5602 37.499 15.6308 38.061 14.7497 39.569Z" fill="#B1ECED"/>
<path d="M34.9696 40.6324C35.6921 37.2293 36.8837 35.2866 38.9466 36.8016C39.3035 37.0593 39.684 37.4191 40.0885 37.9018C41.4579 39.4855 45.9233 54.3883 40.9468 53.5672C39.6655 53.3557 38.5801 52.6532 37.7089 51.669C35.1928 48.8206 34.3333 43.5928 34.9696 40.6324Z" fill="#5FBBE8"/>
<path d="M34.9696 40.6317C35.6921 37.2285 36.8838 35.2858 38.9466 36.8009C37.8707 38.4729 36.4382 42.5171 37.7046 51.6601C35.1929 48.8199 34.3334 43.592 34.9696 40.6317Z" fill="#5FAEDE"/>
<path d="M40.7224 46.7998C40.2008 44.5012 39.5337 40.548 39.9624 40.4332C40.3462 40.332 41.6742 43.3574 42.0836 46.6345C42.3079 48.4557 42.2725 50.5516 41.9654 50.6012C41.5966 50.6526 40.8867 47.5155 40.7224 46.7998Z" fill="#B1ECED"/>
<path d="M40.0103 27.2983C38.3365 34.6361 20.9651 34.4722 13.7026 28.7691C11.6853 27.1823 10.4523 25.1688 10.549 22.776C10.9933 11.7371 19.695 2.9095 27.9395 4.1747C30.9279 4.63174 34.2613 6.3173 36.7746 9.29871C40.0053 13.1116 41.8954 19.065 40.0103 27.2983Z" fill="#5FBBE8"/>
<path d="M36.6071 20.0706C36.3758 21.5559 34.6044 22.2222 32.4146 22.4451C30.1091 22.6797 27.3415 22.4139 25.4406 22.1079C22.7135 21.6626 17.5178 20.3776 15.8809 18.3578C15.4975 17.8846 15.3117 17.3711 15.3993 16.8156C15.65 15.2026 16.5401 13.8471 17.7866 12.9587C19.0332 12.0703 20.6363 11.649 22.2949 11.9004L31.5043 13.3172C33.4271 13.6094 35.0061 14.7578 35.8936 16.2973C36.5391 17.4049 36.8191 18.7131 36.6071 20.0706Z" fill="#294F81"/>
<path d="M36.6083 20.0702C36.377 21.5555 34.6056 22.2218 32.4158 22.4447C30.1103 22.6793 27.3426 22.4135 25.4418 22.1074C22.7146 21.6621 17.519 20.3772 15.8821 18.3574C21.3201 19.0274 30.6472 19.5464 35.8947 16.2969C36.5403 17.4045 36.8202 18.7127 36.6083 20.0702Z" fill="#33487A"/>
<path d="M40.0103 27.2979C38.3365 34.6357 20.9651 34.4718 13.7026 28.7687C18.4337 30.3167 32.621 34.3182 36.2999 27.7438C39.46 22.09 37.9191 13.6687 36.7836 9.3003C40.0053 13.1111 41.8955 19.0645 40.0103 27.2979Z" fill="#5FAEDE"/>
<path d="M17.3201 10.0136C17.674 10.6593 20.5579 9.86664 22.5789 8.80391C24.514 7.78783 26.5952 6.0407 26.2931 5.41608C26.0237 4.85543 23.921 5.27723 22.5621 5.74418C19.5238 6.80385 16.9425 9.30592 17.3201 10.0136Z" fill="#B1ECED"/>
<path d="M11.6106 20.9493C11.3686 22.9415 12.2883 25.007 12.8001 24.9526C13.3319 24.8934 13.4864 22.4948 13.4489 21.1564C13.4402 20.7772 13.3772 18.4238 12.8379 18.3494C12.4241 18.3032 11.7684 19.6644 11.6106 20.9493Z" fill="#B1ECED"/>
<path d="M34.9224 18.5195C34.6931 19.9957 33.3135 21.0145 31.8272 20.7924C30.6789 20.6184 29.8181 19.7545 29.5883 18.6841C29.5185 18.3665 29.5086 18.0342 29.5566 17.696C29.7859 16.2197 31.1655 15.201 32.6518 15.423C33.7443 15.5939 34.5744 16.3848 34.8493 17.3806C34.9559 17.7442 34.9825 18.1274 34.9224 18.5195Z" fill="#393760"/>
<path d="M32.8398 15.4658C33.8354 15.6903 34.5978 16.447 34.856 17.3919C34.9535 17.7534 34.9802 18.1367 34.92 18.5287C34.6908 20.005 33.3111 21.0237 31.8249 20.8017C31.7621 20.7875 31.6973 20.7824 31.6345 20.7682C30.5851 20.5315 29.801 19.7039 29.5859 18.6933C29.5162 18.3758 29.5063 18.0434 29.5543 17.7053C29.7836 16.229 31.1632 15.2103 32.6494 15.4323C32.7142 15.4375 32.777 15.4516 32.8398 15.4658ZM32.943 15.008C32.8713 14.9918 32.7995 14.9757 32.7258 14.9685C31.8885 14.8362 31.0501 15.0433 30.3612 15.5481C29.6724 16.053 29.2322 16.7932 29.0998 17.6311C29.0417 18.0141 29.0483 18.4023 29.1329 18.7798C29.3882 19.9881 30.3335 20.9369 31.5353 21.208C31.6071 21.2242 31.6788 21.2404 31.7526 21.2476C32.5899 21.3798 33.4283 21.1728 34.1171 20.6679C34.8059 20.163 35.2462 19.4228 35.3786 18.585C35.4509 18.1391 35.4205 17.6889 35.3012 17.2565C34.9898 16.1299 34.0911 15.2669 32.943 15.008Z" fill="#46AED2"/>
<path d="M34.8583 17.3828C33.4895 19.649 31.0187 19.1955 29.5972 18.6863C29.5275 18.3687 29.5176 18.0364 29.5635 17.7072C29.7838 16.2289 31.1655 15.2012 32.6518 15.4232C33.7353 15.5921 34.5744 16.385 34.8583 17.3828Z" fill="#2F4572"/>
<path d="M31.2377 17.9603C31.7296 18.0358 32.1896 17.6981 32.2653 17.2058C32.341 16.7136 32.0036 16.2534 31.5117 16.1778C31.0198 16.1023 30.5598 16.44 30.4841 16.9322C30.4084 17.4244 30.7458 17.8847 31.2377 17.9603Z" fill="#B1ECED"/>
<path d="M34.2664 18.9579C34.3986 19.0821 34.0535 19.9852 33.3366 20.2385C32.7016 20.4631 31.9508 20.1146 31.9623 19.938C31.9727 19.8083 32.3816 19.8345 33.1196 19.5293C33.8906 19.2033 34.1729 18.8708 34.2664 18.9579Z" fill="#B1ECED"/>
<path d="M23.0318 16.6972C22.8025 18.1734 21.4229 19.1922 19.9366 18.9702C18.7883 18.7961 17.9275 17.9323 17.6977 16.8618C17.6279 16.5442 17.618 16.2119 17.666 15.8737C17.8953 14.3975 19.2749 13.3787 20.7612 13.6007C21.8536 13.7717 22.6838 14.5625 22.9587 15.5583C23.0652 15.9219 23.0919 16.3052 23.0318 16.6972Z" fill="#393760"/>
<path d="M20.9602 13.6366C21.9557 13.8611 22.7092 14.6158 22.9674 15.5606C23.0649 15.9222 23.0916 16.3055 23.0314 16.6975C22.8022 18.1737 21.4225 19.1925 19.9363 18.9705C19.8735 18.9563 19.8087 18.9511 19.7459 18.937C18.6965 18.7003 17.9124 17.8726 17.6973 16.8621C17.6276 16.5445 17.6177 16.2122 17.6657 15.874C17.895 14.3978 19.2746 13.379 20.7608 13.601C20.8236 13.6152 20.8974 13.6224 20.9602 13.6366ZM21.0524 13.1858C20.9807 13.1696 20.9089 13.1534 20.8351 13.1462C19.9978 13.0139 19.1594 13.221 18.4706 13.7259C17.7818 14.2308 17.3416 14.9709 17.2091 15.8088C17.151 16.1918 17.1577 16.58 17.2422 16.9575C17.4976 18.1658 18.4428 19.1147 19.6447 19.3857C19.7165 19.4019 19.7882 19.4181 19.862 19.4253C21.5924 19.693 23.2179 18.5033 23.486 16.7717C23.5582 16.3258 23.5278 15.8757 23.4086 15.4432C23.0992 14.3076 22.2005 13.4447 21.0524 13.1858Z" fill="#46AED2"/>
<path d="M22.9673 15.56C21.5985 17.8262 19.1188 17.3707 17.7063 16.8635C17.6365 16.5459 17.6266 16.2136 17.6726 15.8844C17.8929 14.4061 19.2746 13.3784 20.7608 13.6004C21.8463 13.7603 22.6834 14.5622 22.9673 15.56Z" fill="#2F4572"/>
<path d="M19.3412 16.1263C19.8331 16.2018 20.2932 15.8641 20.3688 15.3719C20.4445 14.8797 20.1071 14.4194 19.6152 14.3438C19.1233 14.2683 18.6633 14.606 18.5876 15.0982C18.512 15.5905 18.8494 16.0507 19.3412 16.1263Z" fill="#B1ECED"/>
<path d="M22.3703 17.1242C22.5025 17.2483 22.1574 18.1514 21.4405 18.4047C20.8055 18.6294 20.0547 18.2808 20.0662 18.1042C20.0766 17.9745 20.4855 18.0007 21.2235 17.6956C22.0014 17.3805 22.2837 17.0481 22.3703 17.1242Z" fill="#B1ECED"/>
<path d="M27.6086 13.3328C27.606 13.5114 26.3356 13.7531 25.0713 13.6755C23.0163 13.5515 21.2641 12.6282 21.3237 12.4058C21.3549 12.3091 22.6349 12.4846 25.1977 12.8645C27.2611 13.1601 27.6129 13.23 27.6086 13.3328Z" fill="#296ABD"/>
<path d="M24.4619 28.7058C23.1689 28.5463 22.2439 27.8 21.6166 26.904C20.4889 25.3009 20.3252 23.2267 20.7471 23.2369C21.4032 23.2529 22.8283 24.4986 24.5888 24.7164C26.6065 24.964 28.0692 24.4544 29.1102 24.5194C29.1571 24.5206 29.2019 24.5307 29.2488 24.5318C30.3025 24.6657 28.4236 29.1937 24.4619 28.7058Z" fill="#294F81"/>
<path d="M24.4626 28.7065C23.1696 28.5469 22.2446 27.8007 21.6172 26.9047C23.4107 26.8093 26.9655 26.3848 29.1198 24.5221C29.1667 24.5233 29.2115 24.5334 29.2584 24.5345C30.3031 24.6664 28.4242 29.1944 24.4626 28.7065Z" fill="#33487A"/>
</svg>
